<?xml version="1.0" standalone="no"?>
<!DOCTYPE svg PUBLIC "-//W3C//DTD SVG 20010904//EN"
 "http://www.w3.org/TR/2001/REC-SVG-20010904/DTD/svg10.dtd">
<svg version="1.0" xmlns="http://www.w3.org/2000/svg"
 width="512.000000pt" height="512.000000pt" viewBox="0 0 512.000000 512.000000"
 preserveAspectRatio="xMidYMid meet">
<metadata>
Created by potrace 1.14, written by Peter Selinger 2001-2017
</metadata>
<g transform="translate(0.000000,512.000000) scale(0.100000,-0.100000)"
fill="#000000" stroke="none">
<path d="M2431 5109 c-183 -36 -366 -150 -462 -286 -15 -22 -46 -28 -229 -48
-30 -3 -62 -8 -70 -10 -8 -2 -44 -6 -80 -10 -36 -3 -76 -7 -90 -9 -14 -3 -52
-7 -85 -11 -33 -3 -71 -7 -85 -10 -14 -2 -52 -7 -85 -10 -173 -18 -286 -35
-304 -47 -34 -21 -43 -56 -32 -133 5 -39 13 -101 16 -140 4 -38 8 -76 10 -85
2 -8 6 -46 10 -85 4 -38 9 -78 11 -88 2 -10 6 -47 9 -83 l7 -64 -45 0 c-28 0
-53 -7 -66 -17 -12 -10 -83 -119 -157 -243 -113 -186 -137 -233 -140 -270 -3
-40 -7 -115 -19 -365 -7 -133 -16 -310 -20 -385 -2 -41 -7 -127 -10 -190 -3
-63 -8 -153 -10 -200 -7 -122 -14 -259 -20 -380 -6 -131 -14 -280 -20 -390 -2
-47 -7 -134 -10 -195 -7 -140 -14 -288 -20 -390 -6 -108 -14 -269 -20 -390 -3
-55 -7 -140 -10 -190 -2 -49 -7 -143 -10 -208 l-6 -117 30 -30 29 -30 2112 0
2112 0 29 30 30 30 -6 117 c-3 65 -8 156 -10 203 -2 47 -7 135 -10 195 -8 165
-14 290 -20 390 -3 50 -8 135 -10 190 -3 55 -7 141 -10 190 -2 50 -6 135 -9
190 -3 55 -8 150 -11 210 -3 61 -7 146 -10 190 -2 44 -7 132 -10 195 -3 63 -8
153 -10 200 -5 88 -14 266 -20 380 -6 131 -17 345 -20 389 -2 25 -6 119 -10
209 -4 89 -10 172 -13 185 -13 41 -276 469 -298 484 -15 10 -50 14 -108 14
-85 0 -86 0 -80 23 68 273 69 300 12 329 -18 9 -105 33 -193 53 -88 20 -225
52 -305 71 -142 34 -159 38 -210 48 -82 16 -83 17 -110 96 -26 78 -75 171
-113 216 -66 79 -97 109 -151 148 -136 96 -252 135 -411 140 -60 2 -130 -1
-154 -6z m289 -188 c132 -41 255 -137 324 -254 20 -34 36 -67 36 -73 0 -7 -39
-2 -112 16 -94 23 -118 25 -143 16 -33 -13 -61 -59 -70 -116 -3 -19 -20 -96
-38 -170 l-32 -134 -38 -9 c-21 -5 -41 -6 -44 -3 -7 7 -20 88 -29 184 -3 35
-7 73 -9 84 -2 10 -7 49 -11 86 -3 36 -7 73 -9 82 -1 8 -6 44 -9 80 -4 36 -12
78 -18 93 -12 30 -51 55 -83 52 -11 -1 -51 -5 -90 -9 -38 -4 -83 -9 -100 -12
-38 -7 -24 5 65 50 56 29 108 45 195 59 46 8 154 -3 215 -22z m-349 -283 c1
-18 2 -44 4 -58 2 -14 6 -54 10 -90 3 -36 10 -90 15 -120 5 -30 12 -84 15
-120 3 -36 7 -75 9 -86 4 -22 -17 -28 -569 -159 -104 -24 -207 -49 -227 -55
-39 -11 -78 -51 -78 -79 0 -10 16 -81 35 -160 19 -78 35 -144 35 -147 0 -2
-94 -4 -210 -4 -161 0 -210 3 -211 13 0 6 -2 19 -3 27 -2 8 -6 42 -10 75 -3
33 -13 114 -21 180 -8 66 -18 140 -20 165 -3 25 -7 61 -10 80 -2 19 -7 62 -10
95 -4 32 -8 66 -10 75 -6 31 -18 166 -19 209 -1 48 -7 45 91 55 103 11 146 16
238 27 50 7 101 13 115 14 14 2 52 6 85 10 33 3 71 8 85 10 41 6 101 14 165
20 33 4 71 8 85 10 14 1 90 10 170 20 80 9 146 17 147 18 1 1 22 3 47 5 46 2
46 2 47 -30z m902 -278 c187 -44 349 -82 361 -85 27 -6 158 -36 171 -39 6 -1
36 -8 68 -16 69 -16 72 31 -21 -365 l-68 -290 -252 -3 c-197 -2 -253 0 -256
10 -4 13 -126 518 -130 540 -20 98 -37 137 -67 159 -30 21 -31 21 -102 4 -40
-9 -80 -19 -89 -21 -15 -4 -16 -1 -8 23 12 37 34 146 32 156 -3 12 10 9 361
-73z m-285 -327 c13 -69 11 -62 56 -243 20 -80 38 -155 41 -168 2 -12 7 -31
10 -42 6 -20 1 -20 -644 -20 l-650 0 -10 38 c-5 20 -18 74 -29 119 l-19 82
271 66 c149 36 280 67 291 69 11 3 67 16 125 31 58 14 116 28 130 31 14 3 90
21 170 41 80 19 156 37 170 40 13 2 27 6 29 9 2 2 14 4 26 4 18 0 23 -9 33
-57z m-1992 -238 c1 -11 5 -40 8 -65 3 -25 9 -73 12 -107 l6 -63 -106 0 c-58
0 -106 2 -106 4 0 2 34 61 76 131 54 90 81 125 93 123 9 -2 17 -12 17 -23z
m3238 -101 c42 -69 76 -127 76 -130 0 -2 -79 -4 -176 -4 -162 0 -175 1 -170
18 3 9 17 68 31 130 l27 112 68 0 69 0 75 -126z m151 -316 c2 -1 6 -66 10
-143 9 -196 14 -296 20 -400 2 -49 7 -146 11 -215 3 -69 7 -150 9 -180 2 -30
6 -122 10 -205 3 -82 8 -168 10 -190 2 -22 7 -107 11 -190 7 -156 7 -162 18
-390 8 -141 9 -171 21 -390 8 -154 13 -241 20 -395 3 -69 8 -159 10 -200 3
-42 7 -128 11 -191 l6 -115 -1992 0 -1991 0 5 115 c4 64 9 159 11 211 3 52 8
137 10 188 3 50 7 134 10 185 12 238 15 289 20 392 3 61 8 153 10 205 10 193
15 278 20 390 3 63 7 149 10 190 2 41 7 131 10 200 4 69 8 154 10 190 2 36 7
124 10 195 3 72 8 155 10 185 2 30 7 123 11 205 4 83 8 170 9 195 2 25 3 71 4
102 1 56 1 57 34 60 44 4 3618 1 3622 -4z"/>
<path d="M1794 3180 c-127 -65 -179 -209 -120 -335 24 -52 88 -118 125 -130
14 -4 21 -15 21 -33 6 -458 8 -474 86 -629 95 -190 268 -329 477 -383 90 -23
282 -21 369 3 226 64 416 238 499 457 10 27 20 59 23 72 3 13 9 44 14 70 5 26
10 127 10 225 1 98 1 185 1 194 1 9 14 22 31 29 42 17 104 88 125 143 12 32
16 64 13 104 -8 103 -58 175 -157 221 -152 71 -340 -38 -358 -208 -10 -98 40
-200 125 -252 20 -12 39 -25 42 -29 7 -10 4 -354 -4 -399 -24 -149 -118 -298
-241 -381 -177 -119 -422 -125 -605 -14 -137 83 -241 235 -266 390 -8 48 -12
393 -4 403 3 4 24 19 47 34 174 113 156 365 -32 454 -73 35 -145 33 -221 -6z
m150 -151 c30 -14 55 -61 48 -94 l-4 -25 -25 20 c-33 25 -73 25 -106 0 l-25
-20 -6 25 c-9 34 13 76 49 91 37 16 39 16 69 3z m1303 2 c21 -2 54 -68 47 -95
l-6 -26 -25 20 c-31 24 -75 26 -107 5 -21 -14 -24 -14 -29 -1 -16 42 43 110
88 101 11 -2 25 -4 32 -4z"/>
</g>
</svg>
